/* XPM */
static char *f95da5385fda4399c5d34598e64500804lW3pXWnvfHLk1bz[] = {
/* columns rows colors chars-per-pixel */
"32 32 77 1 ",
"  c #4F271C",
". c #51271D",
"X c #52291E",
"o c #562D21",
"O c #5A2F23",
"+ c #5C3226",
"@ c #5E3629",
"# c #603729",
"$ c #643B2D",
"% c #683E2F",
"& c #663F30",
"* c #683F30",
"= c #674031",
"- c #6C4334",
"; c #704737",
": c #714837",
"> c #744B3B",
", c #784F3D",
"< c #77503F",
"1 c #79513F",
"2 c #7C5442",
"3 c #7F5845",
"4 c #805744",
"5 c #825946",
"6 c #855D49",
"7 c #885F4A",
"8 c #87604C",
"9 c #89614C",
"0 c #88614D",
"q c #8A624C",
"w c #8C634E",
"e c #89644F",
"r c #8A644F",
"t c #8D644E",
"y c #8F664F",
"u c #8A6450",
"i c #8E6751",
"p c #8F6752",
"a c #8F6852",
"s c #8E6853",
"d c #8F6A53",
"f c #906752",
"g c #916851",
"h c #906853",
"j c #926952",
"k c #936A53",
"l c #936B53",
"z c #906954",
"x c #926B56",
"c c #936C55",
"v c #916C56",
"b c #926D56",
"n c #956C55",
"m c #946D56",
"M c #946C57",
"N c #966D56",
"B c #986F57",
"V c #966F58",
"C c #976F5A",
"Z c #957059",
"A c #977159",
"S c #96705A",
"D c #97725A",
"F c #9A7158",
"G c #98725B",
"H c #9A725A",
"J c #9C735A",
"K c #9C745B",
"L c #99725C",
"P c #9B735C",
"I c #99745C",
"U c #9D755D",
"Y c #9E755C",
"T c #9F775D",
"R c #9D765E",
"E c #A0775D",
"W c #A1785E",
/* pixels */
"#$>6hHH9-#;tEEk4$.-tEFy1%#2hPAv3",
"a2+o*9UUB>$#:yBEB4-%4qKEk5,=>uAP",
"aIm6>#;6WBFq>$>tBEEy;$;7kJEq>*>6",
"$6VUKt:#;5NEEt;%-1kEEk1$$5tHVp2$",
"2&$;tHKh1$=>hWKh>##1yEEk:#o*7VPz",
"VV2%@-hUWg4%#1hKEk1;%%5JEf:O@2fH",
"6mIA6=@-jFFKq-#$5EEWq-#;9VVMw-#-",
"O+2hBm4-==1KKl6=X-5lFB7-*&6MHV7,",
"6;+O2zPPp:$&4hJH8<o+-dIA9*##>mUW",
"UUf>-->uVPz-#+>9ZIe=o@2sVCh2$-1t",
";6CJV9;@-tKUk1=#-8Zbe2;--pHUc2%#",
",:*5HPm6:+$9FJE5=@:8dIZa2-;5hUH4",
"Um2$*-pPI5%#-5hhs3=o+>eZAp2#=5mU",
"7mHf4-$;mUEm4%##3dd3@ o-2mUt1:=:",
".$7cPU2*-2tKEB7>@-uZZa2@ $9mHH9;",
"2;$%5hJHz5--4BEJe=@>3AAp6=#=>hUH",
"EUm:@#2pFE7>$*27IA93&&2uGAs5$+5V",
";yPKp2&$;7CEC6&O:evIs>&$2sPPs2&$",
"--;wmUH6#o;6jEP2O+=aAPv2@@-6BPc4",
"Ut-@;9HHM2##O4CCa6=#=3sGs6>@*7VE",
"fKEq-%#2CECf:#:6VUAu2o$2zPCu,$:4",
"%2kJJw,-$,hFCp6*$>6vV82;::6VPz5$",
"5-=:wFPc2+O*5MRM2@o&6AVv6:+>5MEh",
"JUy;*>5JPf2-$:7xVv6&o=>6Cx62o#6c",
"5BHHz:o-5xRLh2&&2vIS22+o>9vv8:@=",
"$%>9KHt52&2hPCh2o=22bbs3@o-6vvu2",
"ke-$>9HULu-&>7xV33&$&2bSv2oo&3vG",
"cJm3>=:>0LC02#*6LRI3=@=3sAs3;o$3",
"@2avHv3+ ;uMIs2&&2eCGb2X=33vbe2&",
"=@@:eKIp2&@23CLu3&@23bb3-==;3vG3",
"Av2-$:qmLL62+&3vLS222=3bIb2&o-2b",
"sAHAq-+=0xvCe$X20LLS3-&2b3Ss2&+2"
};
