/* XPM */
static char *_c4edeff6ee749e599dfcc37730d2b71FxDsHgpVMfmYp2Zn[] = {
/* columns rows colors chars-per-pixel */
"32 32 124 2 ",
"   c None",
".  c #0B3704",
"X  c #0B3B05",
"o  c #103F09",
"O  c #543D35",
"+  c #0D4105",
"@  c #13470B",
"#  c #154E0C",
"$  c #16560C",
"%  c #18560E",
"&  c #19580F",
"*  c #D41E15",
"=  c #DA1E17",
"-  c #DA1F18",
";  c #CD2614",
":  c #CD2C14",
">  c #D2241B",
",  c #DD221B",
"<  c #CD3415",
"1  c #CD3914",
"2  c #E0241E",
"3  c #DA2620",
"4  c #DE2823",
"5  c #DE2E2A",
"6  c #E02722",
"7  c #E12925",
"8  c #E22E2B",
"9  c #E3312E",
"0  c #E33230",
"q  c #CE4417",
"w  c #D14C19",
"e  c #D2551B",
"r  c #D2581D",
"t  c #D4631E",
"y  c #D66E20",
"u  c #D87321",
"i  c #E53E71",
"p  c #CF5E57",
"a  c #D16E4D",
"s  c #D57D45",
"d  c #D57A4A",
"f  c #CF6754",
"g  c #CA4D6D",
"h  c #CC5567",
"j  c #CB4C73",
"k  c #CB4A78",
"l  c #D14275",
"z  c #D3457E",
"x  c #D0487F",
"c  c #E64079",
"v  c #DB8123",
"b  c #DC8F3D",
"n  c #DE953A",
"m  c #E19929",
"M  c #E09D36",
"N  c #E3A22A",
"B  c #E5AB2C",
"V  c #E7B52E",
"C  c #E7B92F",
"Z  c #E8BB2E",
"A  c #E4A932",
"S  c #E7B431",
"D  c #E6B63B",
"F  c #E8C32E",
"G  c #E8C92F",
"H  c #D78146",
"J  c #E4BA54",
"K  c #E3BB5C",
"L  c #E1C27C",
"P  c #D24983",
"I  c #D84886",
"U  c #D54E8F",
"Y  c #DB4E93",
"T  c #DE4F98",
"R  c #D95196",
"E  c #DE519C",
"W  c #E5458B",
"Q  c #E64691",
"!  c #E94793",
"~  c #E44A94",
"^  c #E14E99",
"/  c #DDCA9D",
"(  c #E1CD9F",
")  c #DDCDA8",
"_  c #DFD3B7",
"`  c #E0CDA1",
"'  c #E0CFAA",
"]  c #DED7C5",
"[  c #DFDBCF",
"{  c #DDDCD9",
"}  c #E0D6C1",
"|  c #E1DBCD",
" . c #E0DFDB",
".. c #E1DED8",
"X. c #E3E2DF",
"o. c #DDDDE0",
"O. c gray88",
"+. c #E1E1E1",
"@. c #E2E2E2",
"#. c gray89",
"$. c #E4E4E4",
"%. c gray90",
"&. c #E5E5E6",
"*. c #E5E6E6",
"=. c #E6E6E6",
"-. c #E7E7E7",
";. c #E2E2E3",
":. c #E7E7E8",
">. c #E6E7E9",
",. c gray91",
"<. c #E9E9E9",
"1. c gray92",
"2. c #E9E9EC",
"3. c #EBECED",
"4. c #EBECEE",
"5. c #ECECEC",
"6. c gray93",
"7. c #EDEEEF",
"8. c #EEEEEE",
"9. c #EEEEEF",
"0. c #EBEBEB",
"q. c gray94",
"w. c #F1F1F1",
"e. c #F1F1F1",
/* pixels */
"            9 9 9                         Q Q Q                 ",
"            0 8 9 0                       Q Q Q Q               ",
"          9 8 6 7 8                       Q ^ ^ Q Q             ",
"          8 8 2 2 8 9                     Q ^ E ^ Q             ",
"    0 8   9 7 , - 7 8 0 9 9 9     Q Q   Q Q Y Y Y Q Q Q Q Q     ",
"9 0 8 8 8 5 > : < : 3 7 6 8 9 i Q Q ~ Q W z g h j I ~ ^ ~ Q     ",
"9 8 6 2 , > r m N u ; , 2 7 9 c ~ ^ ^ E P p n A b h U T ^ Q     ",
"9 8 6 , * < N G F V w = 7 9 9 W Q ^ E R j n F F Z d P ^ Q Q     ",
"  9 8 7 * 1 B F G Z e > 9 9     Q Q ~ Y g M F G F s P ~ Q       ",
"    9 8 = ; v Z F m 1 , 9         Q Q Y k s V F S f P Q Q       ",
"      8 2 * : t t q * , 7 0         Q T U g a s f j Y ^ Q       ",
"    9 8 2 = > > > > , , 6 9       Q ~ E E U x l z Y E ^ Q Q     ",
"    9 7 2 , 6 8 9 9 6 2 6 9       Q ~ ^ E ^ Q W W ^ E E Q Q     ",
"    9 8 7 7 8 9   9 9 9 9 9       Q Q ^ ^ ~ Q   Q Q Q Q Q       ",
"      0 8 0 9         9 9           Q ! ! Q         Q Q         ",
"                                      O               .         ",
"                                      X               X X       ",
"            @.X.@.                    X               X X       ",
"            @.=.#.@.                  X               X X       ",
"          @.$.4.1.@.                  +               + X       ",
"          @.=.e.e.=.@.          & & # + +             + +       ",
"  @.@.@.O.@.=.4.2.<.@.@.#.X.@.  % & # X               X X       ",
"@.@.=.=.=.@.{ _ ' | =.2.4.,.@.  $ & @ .               . X       ",
"@.=.4.e.4.X.L D C K | 4.4.=.@.    % o X               . X       ",
"X.@.<.e.4.} D F G C ( 2.<.@.@.    # . X               X X       ",
"  @.@.<.4.} D F F C ` >.@.          . +               X X       ",
"      =.5.#.L C C J | <.$.          X + X           . X +       ",
"      @.q.9...) / ] <.e.<.@.        X + X           X + X       ",
"    @.=.e.e.5.@.o.>.9.e.4.;.        X o .           X + X       ",
"    @.<.q.q.<.@. .@.<.4.<.;.        X X .           . X X       ",
"    @.@.<.-.@.@.  @.@.#.@.@.        X + .           X X X       ",
"      @.@.@.#.                      X X .             X X       "
};
