/* XPM */
static char *_4fbc8b8115a44e8e22c5b843219c0fdsAvck1Gzj4pJWZcv[] = {
/* columns rows colors chars-per-pixel */
"32 32 166 2 ",
"   c None",
".  c #393433",
"X  c #603D2E",
"o  c #4B4734",
"O  c #594537",
"+  c #5B4A33",
"@  c #63522C",
"#  c #664A35",
"$  c #7A4238",
"%  c #695931",
"&  c #6B612A",
"*  c #7D6A27",
"=  c #696031",
"-  c #20414D",
";  c #2D444B",
":  c #314E58",
">  c #474D48",
",  c #4E5E5D",
"<  c #5D5E52",
"1  c #774A40",
"2  c #635948",
"3  c #755643",
"4  c #656961",
"5  c #777065",
"6  c #777069",
"7  c #BD431F",
"8  c #885434",
"9  c #846E2D",
"0  c #887727",
"q  c #87603D",
"w  c #C94F28",
"e  c #DA5529",
"r  c #82534A",
"t  c #855948",
"y  c #935747",
"u  c #915D4D",
"i  c #98544D",
"p  c #8F5B5B",
"a  c #9D5F50",
"s  c #9E5E5A",
"d  c #A35A4E",
"f  c #A55F56",
"g  c #AA5B57",
"h  c #B25E54",
"j  c #AC6159",
"k  c #AA6262",
"l  c #B96869",
"z  c #C35C4A",
"x  c #D55B55",
"c  c #DA5B54",
"v  c #D7565E",
"b  c #D8565B",
"n  c #D45B5D",
"m  c #DA5754",
"M  c #C1684A",
"N  c #D26B4A",
"B  c #D9714F",
"V  c #CE6657",
"C  c #C76258",
"Z  c #CE635B",
"A  c #C36C5E",
"S  c #CE6C5D",
"D  c #D36354",
"F  c #D3635D",
"G  c #DB675C",
"H  c #D26B5E",
"J  c #DB6A5F",
"K  c #CD745E",
"L  c #D4715C",
"P  c #D4795A",
"I  c #D75F62",
"U  c #D95D64",
"Y  c #CF6E6E",
"T  c #D46463",
"R  c #DB6366",
"E  c #D56A62",
"W  c #DB6B65",
"Q  c #D36768",
"!  c #DC6768",
"~  c #D76B69",
"^  c #DD6B6A",
"/  c #CB7360",
"(  c #D47263",
")  c #DB7364",
"_  c #D37C64",
"`  c #D5726B",
"'  c #D6786D",
"]  c #D87C6D",
"[  c #DB6F71",
"{  c #D47173",
"}  c #DC7174",
"|  c #DC767A",
" . c #E06E6B",
".. c #90841F",
"X. c #9D951C",
"o. c #AD9F1C",
"O. c #A5971C",
"+. c #AEA418",
"@. c #B6A11F",
"#. c #B6B11B",
"$. c #BBB816",
"%. c #988620",
"&. c #A38C24",
"*. c #A49F22",
"=. c #AF9925",
"-. c #ABA521",
";. c #C5B913",
":. c #C8C40F",
">. c #D7CF0F",
",. c #D8CF0D",
"<. c #DAD30C",
"1. c #CAC312",
"2. c #D3C710",
"3. c #E0DC09",
"4. c #E9E308",
"5. c #FFFE00",
"6. c #F2F207",
"7. c #928976",
"8. c #B9886A",
"9. c #BC9E77",
"0. c #CF816A",
"q. c #CA8D6C",
"w. c #D7826A",
"e. c #D8856D",
"r. c #D88A6F",
"t. c #D48B6C",
"y. c #DF9368",
"u. c #DF8871",
"i. c #DE9775",
"p. c #E49160",
"a. c #E0936E",
"s. c #EE9F6F",
"d. c #E4967A",
"f. c #E69C76",
"g. c #CDAD7D",
"h. c #D5A679",
"j. c #EFA174",
"k. c #EFAE7F",
"l. c #E2A37B",
"z. c #F1AC7B",
"x. c #EFB07E",
"c. c #7C8688",
"v. c #A59C91",
"b. c #CAAA80",
"n. c #DCB582",
"m. c #C2AC98",
"M. c #EBAD84",
"N. c #E0B785",
"B. c #EEB187",
"V. c #E8BD88",
"C. c #F4B582",
"Z. c #F5BB87",
"A. c #FDB48A",
"S. c #F2BE8B",
"D. c #FDBB8E",
"F. c #ECC78F",
"G. c #E7C190",
"H. c #E9C297",
"J. c #FDC492",
"K. c #F5CB93",
"L. c #FBCD95",
"P. c #FCCF99",
"I. c #F6CA99",
"U. c #FBD197",
"Y. c #FDD69B",
"T. c #FED89C",
/* pixels */
"                                                                ",
"                                                                ",
"                              n n I n                           ",
"                  n m m n n E W ^ ^ W E T n                     ",
"              n F E W W E W ^  .^ ^ ^ ^ ^ R n                   ",
"            n F ^ ! ^ ^ ^ ^ U U ! ! ^ ! ^ ^ W E n               ",
"            F W ^  .! ^ ^ [ U U U U U ! ! ^ ^ ^ E n             ",
"          x G ^ ^  .U U ! ! R U U U U ! ! R ^ ^ ^ J n           ",
"        n x W ^ ^ ^ ! ! R R R R ! U U U ! ! ! ^ ^ ^ E n         ",
"        F G z Z  .^ ^ ^ ! R U R ! R R R ^ ^ ! ! ^ ^ W H         ",
"      n W  .3 # h ^ ^ ^ ^ ! R U ! ! R ! ^ ^ ^ ^ W ^ ^ ) F       ",
"    . $ i j r +.0 d W ^ ^ ^  .W ^ ! ! ^ ^ ^ ^ ^ ! R ^ W F       ",
"    o #.1.*.% :.4.9 i ~ ^ ^ ^ ~  .W W ^ ^ ^ ^ ^ W  .W J E n     ",
"    # #.5.5.+.0 0 0 + j [ ^ E E ^ F E ^ E H ^ E W W  .W W n     ",
"    7 9 6.5.$.@ <.5.,.* A ^ F T E r.0.E ` ( ~ L K L H H W U     ",
"    e u *.#.% +.5.5.5.;.u ) / H H i.( H f.e.H L t.H Z D F n     ",
"    w u % o.%.2.5.5.5.<.q S _ Z u.S.( e.I.w.H M.f.Z D c n n     ",
"    $ # ;.5.O.1.5.5.5.>.8 N 0.l.N.n.q.N.Y.d.B.F.h.A P c n       ",
"      g 3 &.&...5.5.5.=.d L S.9.5 > 2 g.Y.Y.g.< 6 3 M c         ",
"      I ` k r O X.2.@.a { ' K.9.c.- 4 U.Y.Y.g.; c.8.B x         ",
"        R [ { l p t s { } ' I.P.m.: 7.Y.Y.T.F., v.s.N n         ",
"          T [ } | | } } [ ' K.U.P.H.I.Y.Y.U.L.H.K.p.D           ",
"          U ~ } } } } } [ ~ F.Y.Y.Y.Y.Y.T.K.Z.Y.L.y.Z           ",
"            I } [ [ } } ^ ~ M.Y.Y.Y.Y.Y.Y.L.C.Y.P.a.C           ",
"            b W ~ [ } } { ~ d.Y.Y.Y.Y.Y.T.U.U.T.L.a.Z           ",
"            b x I ~ ~ | [ ~ ' K.Y.Y.L.A.D.A.P.Y.z.] Q           ",
"            n   n S T ~ T R E f.L.Y.Y.J.A.J.U.x._ T Q           ",
"                  n b n m U T F s.S.L.T.T.U.z.) F n Z           ",
"                    v   v     v     j.C.S.z.        U           ",
"                                                                ",
"                                                                ",
"                                                                "
};
