/* XPM */
static char *_c4b909d099b4ac3efa2f5ebb785c0fa0nRAQyq8GNAkTH6M[] = {
/* columns rows colors chars-per-pixel */
"32 32 149 2 ",
"   c #8F7E67",
".  c #8C7D6A",
"X  c #93816A",
"o  c #98856B",
"O  c #9C886C",
"+  c #958473",
"@  c #9A8672",
"#  c #978975",
"$  c #9D8B76",
"%  c #9A867B",
"&  c #9C8B7C",
"*  c #A48C6F",
"=  c #AA916F",
"-  c #A38E73",
";  c #A88E75",
":  c #A28E7A",
">  c #A79271",
",  c #AC9272",
"<  c #A4927C",
"1  c #AC967C",
"2  c #AD987F",
"3  c #B29676",
"4  c #B89B77",
"5  c #B1977E",
"6  c #BC977D",
"7  c #B49B7C",
"8  c #BB9E7E",
"9  c #BDA27D",
"0  c #C7A678",
"q  c #958D87",
"w  c #9D8D82",
"e  c #9D9183",
"r  c #A28F86",
"t  c #A49384",
"y  c #AA9583",
"u  c #A79A84",
"i  c #AD9A84",
"p  c #A49289",
"a  c #AB9688",
"s  c #A7998F",
"d  c #AC9B8C",
"f  c #B09283",
"g  c #B29C84",
"h  c #BA9E83",
"j  c #B29D8B",
"k  c #BC9F8C",
"l  c #AC9D93",
"z  c #AA9F9B",
"x  c #B49E91",
"c  c #AEA08A",
"v  c #B7A184",
"b  c #BBA285",
"n  c #B6A28C",
"m  c #BAA48D",
"M  c #BDA88F",
"N  c #AEA194",
"B  c #AEA098",
"V  c #B4A293",
"C  c #BAA594",
"Z  c #BDA994",
"A  c #B5A49A",
"S  c #BBA59A",
"D  c #B7AB9B",
"F  c #BCA99B",
"G  c #B2A4A1",
"H  c #BCA7A2",
"J  c #B6AAA3",
"K  c #BCACA3",
"L  c #BDAEAA",
"P  c #BEB1A3",
"I  c #BBB1AC",
"U  c #BCB3B1",
"Y  c #C59A85",
"T  c #C6A782",
"R  c #C0A78A",
"E  c #C2AA8D",
"W  c #C8AA8A",
"Q  c #C2A796",
"!  c #C3AC94",
"~  c #C9AE92",
"^  c #C0A698",
"/  c #C2AD9B",
"(  c #C6B196",
")  c #CCB296",
"_  c #C5B09C",
"`  c #CBB49D",
"'  c #CCB89D",
"]  c #D2B79C",
"[  c #C2A6A0",
"{  c #C3AEA2",
"}  c #C2ADA4",
"|  c #C3AFA4",
" . c #C8ACA3",
".. c #C2AEAA",
"X. c #C8ADA8",
"o. c #C3B0A2",
"O. c #C5B2A2",
"+. c #C6B4A3",
"@. c #C3B0A7",
"#. c #C7B3A5",
"$. c #C9B4A2",
"%. c #CBB3A7",
"&. c #CAB5A4",
"*. c #CBB8A5",
"=. c #CDB9A5",
"-. c #C5B3A8",
";. c #C6B2A9",
":. c #C3B3AE",
">. c #C4B2AC",
",. c #C6B3AD",
"<. c #C5B5AE",
"1. c #C8B6A9",
"2. c #CBB5AD",
"3. c #CBB6AC",
"4. c #C6B8A9",
"5. c #C2BFAF",
"6. c #CAB8AB",
"7. c #CDBAAB",
"8. c #C8B8AC",
"9. c #CBB8AE",
"0. c #CDBAAF",
"q. c #D0B7A1",
"w. c #D0B8A7",
"e. c #D5BEA6",
"r. c #D2B6A9",
"t. c #D2BCAB",
"y. c #D1BBAD",
"u. c #C3B4B4",
"i. c #CAB7B3",
"p. c #CAB5B5",
"a. c #C6B8B7",
"s. c #CBBAB1",
"d. c #CEBCB1",
"f. c #CAB9B6",
"g. c #CDBAB5",
"h. c #C5BBBB",
"j. c #CDBCB9",
"k. c #CCBFBC",
"l. c #D3BDB4",
"z. c #D3BFBD",
"x. c #D4BEBC",
"c. c #DCC3A6",
"v. c #D7C0A8",
"b. c #DAC3AA",
"n. c #CDC0B0",
"m. c #D6C1B5",
"M. c #DAC4B4",
"N. c #D5C1BB",
"B. c #CEBEC1",
/* pixels */
"` w./ n %.-.I s.S 7.i.x.-.Z y Z F 8 b / Z ~ Q Z / Q / O.! V >.k.",
"j M i g ! 5 ~ i C s.N + e S x y r r g 1 C V # n g O Z v 4 i x j ",
"/ K s S C $ *.8.Z E T V S X./ C Z H %.d #.@.K 8.V # N N & G S Z ",
"1 k } 2.0.l d.a.D W 0 h x A i $ ! #._ . 5 b b ! n p F #.-.U B y ",
"C C K +./ < <.L K &.i V d p % ; y Q _ # > 8 b ~ m C S / < s q   ",
"D F x V V u u @ a A l _ Z m V Q { : # G #.-._ / 2 x p % u / _ #.",
"/  ./ 4.s.@.S S C a d j g m u g +.D V I I U J B S ! n D S E ` ` ",
"v M @._ S { F F h Z 2.A & @.#.K V d i p x C D A C Z Z g > = y i ",
"a %./ d s s a y ; 1 ^ S y b g d i <.B.f.6.F / { #.+ j -.} #.{ A ",
"Z E d ! f.U L f.>.j C O.l.=.F $.g n i n w.&.7.&.7.d n n C =.` w ",
"O.C & / S z l A A ` y.y.1.2.N.g.g m D S M n : j _ I =.m n Z V A ",
"^  .C V D & t z p M y./ 1 Z &.$.a > / a.n v.a Z 4.m.g.7.e./ g X.",
"m k X 3 ) m C L J S ` $.k n &.O.:.} V l < _ a D x { g.s._ C 1 7 ",
"! r.{ y.n t x i 1 A n M 2 i n n m V u C P C S +.&./ Z 4.#.} K j ",
"d 6 Y t.d l U F V 1.o.F s F & d x V 2.l.8.m M M E n g H K Z / u ",
"V a C o.u i l u c ' =.0.t.7.l g n C &.&.s.C g A k & d s t n $.F ",
"{ Z D S K ..J { P M Q - C / &.b.` Z Q v { / Z / F { l.B.B.g.t./ ",
"S F C C l.N.j.j.u.d v.S b.b.s.t.M.l.O.g } k > > a S r.g.r.../ ! ",
"j K V O ~ ) Z C K < ~ u ' =.$.! ` ' ! 1 3 h K r r ..F { 5 j Z / ",
"Z _ F : 3 m S A -.u.C S ` =. .g ! -.} I C S { K #.g.p.u.%.9 4 n ",
"8 , V N < j _ Z m +.! ! Z m E u ! m M ( t F F C A a t s A / ! C ",
"V x V l J N   X c n - i j } x t _ $ d n.P a x ) ) n j ..h.h.U F ",
"/ ..H -./ H e A f.p.n ) &./ H -.m.D D n.( M C } ` n i x d s S ` ",
": D k A n $ % a A H V ~ n : d  .X.x C O.7 i a t # j S k y / =.Z ",
"H C j p t C ` ) / _ ' n r l V { X.p.:.F l / j C K ! ' ' ! ( ' V ",
"n / Z n D g R ( ~ ~ ] V V  .$.%.s.3.O.F B Z ~ m < * 1 7 v M Q i ",
"C V g m i < 1 i < 5 Z n j r % d } k g { >.s . } { { F H w x _ Z ",
"2.K % } @.2.1.2.r / t./ / n K A G @.t.&.7.@.u Z C $.=.S & ` *.` ",
"$./ u b f Z ` C w ! n F M g 1 : e n a g Z S F ~ 2 ! m A A $.-.&.",
"/ 1.8.y.m _ n S [  .F S A n { <.H =.F F l.l.N.l.m.m.a ^ S x < 2 ",
"M.l.m.m.s.t.i ! Q ^ C g j x o.-.K _ n ( t.$.O.d.t.` i b H A @.c.",
"e.Z i 0.b.( d = 3 Q y * 1 g i o.6.Z j F e.V o 7 $._ J n t e w m "
};
